<?xml version="1.0" encoding="UTF-8" standalone="no"?>
<!-- Created with Inkscape (http://www.inkscape.org/) -->

<svg
   xmlns:dc="http://purl.org/dc/elements/1.1/"
   xmlns:cc="http://creativecommons.org/ns#"
   xmlns:rdf="http://www.w3.org/1999/02/22-rdf-syntax-ns#"
   xmlns:svg="http://www.w3.org/2000/svg"
   xmlns="http://www.w3.org/2000/svg"
   xmlns:sodipodi="http://sodipodi.sourceforge.net/DTD/sodipodi-0.dtd"
   xmlns:inkscape="http://www.inkscape.org/namespaces/inkscape"
   width="512"
   height="512"
   id="svg2"
   version="1.1"
   inkscape:version="0.48.1 r9760"
   sodipodi:docname="logo.svg">
  <defs
     id="defs4" />
  <sodipodi:namedview
     id="base"
     pagecolor="#ffffff"
     bordercolor="#666666"
     borderopacity="1.0"
     inkscape:pageopacity="0.0"
     inkscape:pageshadow="2"
     inkscape:zoom="0.62162861"
     inkscape:cx="313.66283"
     inkscape:cy="262.36617"
     inkscape:document-units="px"
     inkscape:current-layer="layer1"
     showgrid="false"
     inkscape:window-width="809"
     inkscape:window-height="645"
     inkscape:window-x="0"
     inkscape:window-y="0"
     inkscape:window-maximized="0" />
  <metadata
     id="metadata7">
    <rdf:RDF>
      <cc:Work
         rdf:about="">
        <dc:format>image/svg+xml</dc:format>
        <dc:type
           rdf:resource="http://purl.org/dc/dcmitype/StillImage" />
        <dc:title></dc:title>
      </cc:Work>
    </rdf:RDF>
  </metadata>
  <g
     inkscape:label="Ebene 1"
     inkscape:groupmode="layer"
     id="layer1"
     transform="translate(0,-540.36218)">
    <path
       sodipodi:type="arc"
       style="fill:none;stroke:#9b9b9b;stroke-width:5;stroke-linecap:butt;stroke-linejoin:miter;stroke-miterlimit:4;stroke-opacity:1;stroke-dasharray:none"
       id="path2987"
       sodipodi:cx="291.97498"
       sodipodi:cy="413.06631"
       sodipodi:rx="78.020859"
       sodipodi:ry="28.151857"
       d="m 369.99583,413.06631 a 78.020859,28.151857 0 1 1 -156.04171,0 78.020859,28.151857 0 1 1 156.04171,0 z"
       transform="matrix(1,0,0,-1,42.629947,1370.1643)" />
    <path
       style="fill:#dadada;stroke:#575757;stroke-width:6;stroke-linecap:butt;stroke-linejoin:miter;stroke-opacity:1;fill-opacity:1;stroke-miterlimit:4;stroke-dasharray:none"
       d="M 77.216524,179.00374 C 34.123631,171.21482 102.66894,57.000535 154.43304,113.04796 160.7352,29.189789 247.73635,24.570697 257.38841,84.091766 c 38.60827,-51.477681 118.9083,-45.501587 119.04213,32.173554 80.43388,-19.304135 73.99918,57.91239 35.39091,62.73842 -36.47015,4.55877 -287.23069,8.56276 -334.604926,0 z"
       id="path3780"
       inkscape:connector-curvature="0"
       transform="translate(0,540.36218)"
       sodipodi:nodetypes="scccss" />
    <path
       transform="matrix(1.3296435,0,0,-1.3296435,-53.617706,1506.3289)"
       d="m 369.99583,413.06631 a 78.020859,28.151857 0 1 1 -156.04171,0 78.020859,28.151857 0 1 1 156.04171,0 z"
       sodipodi:ry="28.151857"
       sodipodi:rx="78.020859"
       sodipodi:cy="413.06631"
       sodipodi:cx="291.97498"
       id="path3782"
       style="fill:none;stroke:#b6b6b6;stroke-width:3.76040645000000007;stroke-linecap:butt;stroke-linejoin:miter;stroke-miterlimit:4;stroke-opacity:1;stroke-dasharray:none"
       sodipodi:type="arc" />
    <path
       sodipodi:type="arc"
       style="fill:none;stroke:#898989;stroke-width:8.00031259;stroke-linecap:butt;stroke-linejoin:miter;stroke-miterlimit:4;stroke-opacity:1;stroke-dasharray:none"
       id="path3784"
       sodipodi:cx="291.97498"
       sodipodi:cy="413.06631"
       sodipodi:rx="78.020859"
       sodipodi:ry="28.151857"
       d="m 369.99583,413.06631 a 78.020859,28.151857 0 1 1 -156.04171,0 78.020859,28.151857 0 1 1 156.04171,0 z"
       transform="matrix(0.62497558,0,0,-0.62497558,152.12769,1215.2543)" />
    <path
       sodipodi:type="arc"
       style="fill:none;stroke:#cecece;stroke-width:2.95500571999999995;stroke-linecap:butt;stroke-linejoin:miter;stroke-miterlimit:4;stroke-opacity:1;stroke-dasharray:none"
       id="path3786"
       sodipodi:cx="291.97498"
       sodipodi:cy="413.06631"
       sodipodi:rx="78.020859"
       sodipodi:ry="28.151857"
       d="m 369.99583,413.06631 a 78.020859,28.151857 0 1 1 -156.04171,0 78.020859,28.151857 0 1 1 156.04171,0 z"
       transform="matrix(1.6920441,0,0,-1.6920441,-159.42963,1656.0244)" />
  </g>
</svg>
